<mxfile host="Electron" agent="Mozilla/5.0 (Macintosh; Intel Mac OS X 10_15_7) AppleWebKit/537.36 (KHTML, like Gecko) draw.io/26.2.15 Chrome/134.0.6998.205 Electron/35.2.1 Safari/537.36" version="26.2.15">
  <diagram name="Page-1" id="woQcMK_incN8eUBf9QJ5">
    <mxGraphModel dx="1234" dy="917" grid="1" gridSize="10" guides="1" tooltips="1" connect="1" arrows="1" fold="1" page="1" pageScale="1" pageWidth="1169" pageHeight="827" math="0" shadow="0">
      <root>
        <mxCell id="0" />
        <mxCell id="1" parent="0" />
        <mxCell id="dwr4AOpvBhdcBf154Fjt-3" value="" style="edgeStyle=orthogonalEdgeStyle;rounded=0;orthogonalLoop=1;jettySize=auto;html=1;labelBackgroundColor=none;strokeColor=#182E3E;fontColor=default;" edge="1" parent="1" source="dwr4AOpvBhdcBf154Fjt-1" target="dwr4AOpvBhdcBf154Fjt-2">
          <mxGeometry relative="1" as="geometry" />
        </mxCell>
        <mxCell id="dwr4AOpvBhdcBf154Fjt-1" value="&lt;font style=&quot;font-size: 17px;&quot;&gt;Launch Wrapper App&lt;/font&gt;" style="shape=process;whiteSpace=wrap;html=1;backgroundOutline=1;labelBackgroundColor=none;fillColor=#56517E;strokeColor=#EEEEEE;fontColor=#FFFFFF;" vertex="1" parent="1">
          <mxGeometry x="480" y="80" width="120" height="60" as="geometry" />
        </mxCell>
        <mxCell id="dwr4AOpvBhdcBf154Fjt-5" value="" style="edgeStyle=orthogonalEdgeStyle;rounded=0;orthogonalLoop=1;jettySize=auto;html=1;labelBackgroundColor=none;strokeColor=#182E3E;fontColor=default;" edge="1" parent="1" source="dwr4AOpvBhdcBf154Fjt-2" target="dwr4AOpvBhdcBf154Fjt-4">
          <mxGeometry relative="1" as="geometry" />
        </mxCell>
        <mxCell id="dwr4AOpvBhdcBf154Fjt-2" value="&lt;font style=&quot;font-size: 17px;&quot;&gt;Set up main app&lt;/font&gt;" style="shape=process;whiteSpace=wrap;html=1;backgroundOutline=1;labelBackgroundColor=none;fillColor=#56517E;strokeColor=#EEEEEE;fontColor=#FFFFFF;" vertex="1" parent="1">
          <mxGeometry x="480" y="180" width="120" height="60" as="geometry" />
        </mxCell>
        <mxCell id="dwr4AOpvBhdcBf154Fjt-7" value="" style="edgeStyle=orthogonalEdgeStyle;rounded=0;orthogonalLoop=1;jettySize=auto;html=1;labelBackgroundColor=none;strokeColor=#182E3E;fontColor=default;" edge="1" parent="1" source="dwr4AOpvBhdcBf154Fjt-4" target="dwr4AOpvBhdcBf154Fjt-6">
          <mxGeometry relative="1" as="geometry" />
        </mxCell>
        <mxCell id="dwr4AOpvBhdcBf154Fjt-4" value="&lt;font style=&quot;font-size: 17px;&quot;&gt;Drop main app privileges&lt;/font&gt;" style="shape=process;whiteSpace=wrap;html=1;backgroundOutline=1;labelBackgroundColor=none;fillColor=#56517E;strokeColor=#EEEEEE;fontColor=#FFFFFF;" vertex="1" parent="1">
          <mxGeometry x="480" y="270" width="120" height="60" as="geometry" />
        </mxCell>
        <mxCell id="dwr4AOpvBhdcBf154Fjt-9" value="" style="edgeStyle=orthogonalEdgeStyle;rounded=0;orthogonalLoop=1;jettySize=auto;html=1;labelBackgroundColor=none;strokeColor=#182E3E;fontColor=default;" edge="1" parent="1" source="dwr4AOpvBhdcBf154Fjt-6" target="dwr4AOpvBhdcBf154Fjt-8">
          <mxGeometry relative="1" as="geometry" />
        </mxCell>
        <mxCell id="dwr4AOpvBhdcBf154Fjt-6" value="&lt;span style=&quot;font-size: 17px;&quot;&gt;Apply filter&lt;/span&gt;" style="shape=process;whiteSpace=wrap;html=1;backgroundOutline=1;labelBackgroundColor=none;fillColor=#56517E;strokeColor=#EEEEEE;fontColor=#FFFFFF;" vertex="1" parent="1">
          <mxGeometry x="480" y="360" width="120" height="60" as="geometry" />
        </mxCell>
        <mxCell id="dwr4AOpvBhdcBf154Fjt-8" value="&lt;span style=&quot;font-size: 17px;&quot;&gt;Launch main app&lt;/span&gt;" style="shape=process;whiteSpace=wrap;html=1;backgroundOutline=1;labelBackgroundColor=none;fillColor=#56517E;strokeColor=#EEEEEE;fontColor=#FFFFFF;" vertex="1" parent="1">
          <mxGeometry x="480" y="450" width="120" height="60" as="geometry" />
        </mxCell>
      </root>
    </mxGraphModel>
  </diagram>
</mxfile>
